# xmcd
#
# Track frame offsets:
#	150
#	15575
#	20350
#	36357
#	44582
#	60532
#	66922
#	84217
#	94962
#	111597
#	115012
#	122757
#	137095
#	139977
#	151730
#	155837
#	173207
#
# Disc length: 3164 seconds
#
# Revision: 0
# Processed by: cddbd v1.5.1PL0 Copyright (c) Steve Scherf et al.
# Submitted via: EasyCDDAExtractor 8.2.0.1
#
DISCID=ea0c5a11
DTITLE=Tim Fite - Gone ain't gone
DYEAR=2005
DGENRE=
TTITLE0=I hope you're there
TTITLE1=Toasted rye
TTITLE2=No good here
TTITLE3=Eating in the grocery store with William
TTITLE4=45 remedies
TTITLE5=I've kept singing (feat Paul Robeson)
TTITLE6=Not a hit song
TTITLE7=Innocent man
TTITLE8=Shook
TTITLE9=If I had a copshow
TTITLE10=The flowers bloom
TTITLE11=All I need
TTITLE12=Disgrace
TTITLE13=Mascara lies
TTITLE14=Time comes around
TTITLE15=Away from the snakes
TTITLE16=The more you do
EXTD=
EXTT0=
EXTT1=
EXTT2=
EXTT3=
EXTT4=
EXTT5=
EXTT6=
EXTT7=
EXTT8=
EXTT9=
EXTT10=
EXTT11=
EXTT12=
EXTT13=
EXTT14=
EXTT15=
EXTT16=
PLAYORDER=
